<?xml version="1.0" standalone="no"?>
<!DOCTYPE svg PUBLIC "-//W3C//DTD SVG 20010904//EN"
 "http://www.w3.org/TR/2001/REC-SVG-20010904/DTD/svg10.dtd">
<svg version="1.0" xmlns="http://www.w3.org/2000/svg"
 width="640.000000pt" height="550.000000pt" viewBox="0 0 640.000000 550.000000"
 preserveAspectRatio="xMidYMid meet">

<g transform="translate(0.000000,550.000000) scale(0.100000,-0.100000)"
fill="#000000" stroke="none">
<path d="M1437 4494 c-94 -49 -200 -177 -294 -354 -36 -70 -123 -275 -123
-293 0 -16 -46 -105 -81 -157 -20 -30 -79 -104 -129 -165 -204 -245 -269 -380
-270 -566 0 -179 96 -329 300 -466 63 -42 235 -131 318 -164 12 -5 32 -13 45
-18 56 -23 120 -45 241 -85 125 -41 185 -60 349 -107 39 -12 101 -30 137 -40
36 -11 83 -24 105 -30 217 -61 298 -97 685 -303 132 -70 675 -342 755 -378 33
-15 85 -38 115 -51 30 -14 75 -34 100 -45 258 -116 578 -221 780 -257 208 -36
624 2 857 80 326 109 502 310 491 563 -3 77 -7 97 -38 157 -35 70 -150 199
-215 242 -140 93 -263 133 -468 152 -86 9 -120 17 -170 41 -176 85 -375 292
-704 730 -163 217 -204 294 -328 610 -31 80 -60 154 -65 165 -4 11 -17 45 -28
75 -137 378 -226 541 -319 585 -28 14 -52 16 -105 12 -141 -12 -311 -126 -589
-395 l-67 -64 -103 7 c-57 3 -138 13 -179 20 -172 31 -225 62 -430 251 -113
103 -143 129 -198 171 -31 24 -85 56 -119 73 -83 40 -183 42 -256 4z m182
-174 c47 -24 162 -114 256 -202 191 -178 272 -233 398 -271 129 -39 323 -67
464 -67 l57 0 86 83 c227 219 358 324 453 365 57 25 80 17 114 -40 55 -92 155
-331 147 -351 -3 -7 -62 -50 -132 -97 -135 -90 -155 -115 -136 -166 12 -34 55
-66 88 -66 16 0 70 29 137 72 63 42 113 69 118 64 4 -5 31 -67 59 -139 42
-105 50 -132 39 -142 -7 -7 -64 -48 -127 -90 -131 -90 -151 -117 -122 -173 9
-18 29 -40 44 -48 36 -21 55 -14 184 71 56 37 106 67 111 67 6 0 23 -24 38
-52 15 -29 50 -86 77 -125 l48 -72 -147 -99 c-82 -55 -155 -107 -163 -117 -24
-30 -17 -95 14 -122 49 -42 76 -33 247 81 l157 105 20 -22 c11 -12 53 -65 95
-118 182 -235 348 -403 491 -498 138 -91 220 -120 366 -131 189 -14 315 -67
430 -180 75 -73 110 -139 110 -204 0 -43 -28 -96 -51 -96 -6 0 -29 -13 -52
-28 -37 -24 -99 -56 -162 -83 -11 -5 -56 -18 -100 -31 -69 -19 -105 -22 -265
-21 -248 0 -431 36 -715 141 -76 28 -104 39 -200 80 -152 65 -543 270 -725
382 -184 112 -307 191 -600 385 -414 274 -606 395 -626 395 -2 0 -23 8 -47 19
-62 28 -143 57 -222 82 -158 48 -399 131 -487 165 -218 87 -391 195 -452 282
l-29 41 59 72 c103 126 124 153 159 211 19 32 41 77 49 100 32 97 46 131 101
251 92 205 212 355 283 357 12 0 40 -9 61 -20z m-779 -1186 c90 -92 290 -207
490 -283 47 -18 94 -37 105 -42 11 -5 79 -27 150 -50 365 -117 379 -121 480
-170 98 -47 159 -85 495 -309 399 -265 684 -445 903 -569 178 -101 559 -291
582 -291 3 0 24 -9 48 -19 54 -24 170 -69 222 -86 161 -52 327 -95 367 -95 13
0 33 -7 44 -16 17 -14 7 -15 -121 -10 -77 2 -153 9 -170 14 -16 5 -55 15 -85
22 -118 28 -425 139 -610 222 -68 31 -165 75 -265 121 -104 48 -484 239 -627
315 -54 29 -142 75 -195 104 -273 144 -333 168 -613 248 -80 22 -156 45 -170
49 -14 5 -45 14 -70 21 -25 7 -56 16 -70 20 -14 4 -72 22 -130 40 -296 89
-582 217 -709 314 -137 105 -189 215 -161 338 14 63 50 158 59 158 4 0 27 -20
51 -46z"/>
</g>
</svg>
