<?xml version="1.0" standalone="no"?>
<!DOCTYPE svg PUBLIC "-//W3C//DTD SVG 20010904//EN"
 "http://www.w3.org/TR/2001/REC-SVG-20010904/DTD/svg10.dtd">
<svg version="1.0" xmlns="http://www.w3.org/2000/svg"
 width="500.000000pt" height="500.000000pt" viewBox="0 0 500.000000 500.000000"
 preserveAspectRatio="xMidYMid meet">

<g transform="translate(0.000000,500.000000) scale(0.100000,-0.100000)"
fill="#000000" stroke="none">
<path d="M1657 4406 c-57 -21 -103 -61 -128 -113 l-24 -48 -3 -1720 c-2 -1217
1 -1733 8 -1765 16 -65 52 -115 107 -147 l48 -28 835 0 835 0 47 28 c55 32 85
71 104 134 21 69 21 3437 0 3506 -19 63 -49 102 -104 134 l-47 28 -820 2
c-668 2 -827 0 -858 -11z m393 -70 c0 -59 -28 -56 450 -56 478 0 450 -4 450
57 l0 25 183 -4 c160 -3 186 -5 216 -23 44 -26 70 -62 81 -111 13 -52 13
-3396 0 -3448 -11 -49 -37 -85 -81 -111 -33 -20 -52 -20 -849 -20 -804 0 -815
0 -850 21 -48 28 -78 75 -85 137 -3 29 -5 813 -3 1742 3 1547 4 1693 19 1720
44 80 89 94 302 95 l167 0 0 -24z"/>
<path d="M1805 3979 c-15 -23 15 -30 121 -27 89 2 109 6 109 18 0 12 -20 16
-112 18 -74 2 -114 -1 -118 -9z"/>
<path d="M2185 3979 c-14 -22 21 -29 130 -27 90 3 110 6 110 18 0 12 -21 16
-117 18 -79 2 -119 -1 -123 -9z"/>
<path d="M2575 3980 c-14 -23 11 -30 113 -30 107 0 141 8 128 29 -9 14 -232
15 -241 1z"/>
<path d="M2965 3979 c-15 -23 15 -30 121 -27 89 2 109 6 109 18 0 12 -20 16
-112 18 -74 2 -114 -1 -118 -9z"/>
<path d="M1800 3285 l0 -505 710 0 710 0 0 505 0 505 -710 0 -710 0 0 -505z
m1349 471 c-12 -12 -624 -439 -634 -442 -9 -4 -598 399 -639 437 -6 5 269 9
634 9 354 0 641 -2 639 -4z m-965 -260 c163 -115 293 -212 289 -216 -4 -4
-129 -92 -278 -195 -148 -104 -291 -204 -317 -223 l-48 -34 0 457 0 457 28
-19 c16 -10 162 -112 326 -227z m1004 -435 l-3 -230 -318 223 c-175 123 -320
226 -323 229 -3 2 140 107 318 232 l323 227 3 -225 c1 -124 1 -329 0 -456z
m-352 -23 l316 -223 -321 -3 c-176 -1 -466 -1 -644 0 l-322 3 315 222 c173
122 320 222 327 222 7 1 154 -99 329 -221z"/>
<path d="M1797 2484 c-20 -20 37 -24 359 -24 308 0 354 2 354 15 0 13 -46 15
-353 15 -195 0 -357 -3 -360 -6z"/>
<path d="M1805 2287 c-3 -6 -4 -161 -3 -342 l3 -330 318 -3 317 -2 0 345 0
345 -315 0 c-244 0 -317 -3 -320 -13z m534 -74 c-30 -32 -91 -97 -135 -146
l-81 -87 -119 127 c-66 71 -125 136 -133 146 -13 16 1 17 254 17 l268 0 -54
-57z m69 -395 l-3 -143 -131 140 -131 140 131 142 131 142 3 -139 c1 -76 1
-203 0 -282z m-404 243 l95 -104 -72 -79 c-40 -44 -98 -107 -129 -141 l-57
-62 -1 280 0 280 34 -35 c19 -19 77 -82 130 -139z m212 -228 c50 -54 107 -117
128 -140 l38 -43 -262 0 -262 0 128 139 c71 77 131 140 134 140 3 1 46 -43 96
-96z"/>
<path d="M2572 1958 l3 -343 315 0 315 0 3 343 2 342 -320 0 -320 0 2 -342z
m578 306 c0 -3 -57 -68 -127 -145 l-128 -139 -132 138 c-73 75 -132 140 -133
145 0 4 117 7 260 7 143 0 260 -3 260 -6z m-386 -194 l104 -114 -81 -89 c-45
-48 -105 -114 -134 -145 l-52 -57 -1 290 0 290 29 -30 c17 -17 77 -82 135
-145z m414 -253 l-3 -145 -131 142 -131 142 131 142 131 143 3 -140 c1 -77 1
-205 0 -284z m-154 -27 l124 -135 -129 -3 c-71 -1 -187 -1 -258 0 l-128 3 126
137 c69 75 129 136 133 135 4 -1 63 -63 132 -137z"/>
<path d="M1813 1468 c3 -10 55 -13 217 -13 162 0 214 3 218 13 3 9 -45 12
-218 12 -173 0 -221 -3 -217 -12z"/>
<path d="M2576 1471 c-11 -17 28 -21 219 -21 191 0 230 4 219 21 -7 12 -431
12 -438 0z"/>
<path d="M1805 1350 c-3 -6 0 -12 7 -15 26 -10 433 0 433 10 0 14 -431 19
-440 5z"/>
<path d="M2575 1350 c-3 -6 0 -12 7 -15 26 -10 433 0 433 10 0 14 -431 19
-440 5z"/>
<path d="M1860 998 c-14 -7 -33 -30 -43 -51 -16 -31 -17 -42 -7 -72 33 -100
167 -100 200 -1 12 38 -3 89 -33 114 -23 20 -88 25 -117 10z m98 -38 c47 -44
15 -130 -48 -130 -38 0 -70 34 -70 75 0 41 32 75 70 75 14 0 36 -9 48 -20z"/>
<path d="M2241 996 c-49 -27 -67 -110 -33 -152 42 -52 106 -58 154 -15 28 25
33 36 33 76 0 40 -5 51 -33 76 -36 32 -80 38 -121 15z m104 -41 c14 -13 25
-36 25 -50 0 -33 -41 -75 -73 -75 -38 0 -77 36 -77 71 0 37 40 79 75 79 14 0
37 -11 50 -25z"/>
<path d="M2604 976 c-26 -26 -34 -42 -34 -71 0 -49 53 -105 99 -105 43 0 85
23 99 55 36 78 -14 155 -99 155 -22 0 -41 -10 -65 -34z m121 -21 c14 -13 25
-36 25 -50 0 -33 -42 -75 -75 -75 -33 0 -75 42 -75 75 0 33 42 75 75 75 14 0
37 -11 50 -25z"/>
<path d="M3010 997 c-33 -16 -64 -80 -55 -114 3 -14 20 -39 36 -56 27 -26 35
-29 75 -24 52 5 79 26 94 72 28 86 -67 163 -150 122z m94 -38 c52 -41 21 -129
-46 -129 -62 0 -93 86 -46 130 28 26 58 26 92 -1z"/>
</g>
</svg>
